<svg width="168" height="47" viewBox="0 0 168 47" fill="none" xmlns="http://www.w3.org/2000/svg">
<path d="M23.8542 0.326416H30.4496L38.0245 20.3737H31.625L30.5802 17.4679H23.5277L22.4829 20.3737H16.2793L23.8542 0.326416ZM27.0539 7.73805L25.3888 12.3417H28.7191L27.0539 7.73805Z" fill="#10003F"/>
<path d="M44.572 5.71373V0.326416H62.7257V5.71373H56.8159V20.3737H50.4818V5.71373H44.572Z" fill="#10003F"/>
<path d="M73.9493 7.47685L77.5409 0.326416H84.1362L76.9531 13.7784V20.3737H70.5863V13.7784L63.5012 0.326416H70.3578L73.9493 7.47685Z" fill="#10003F"/>
<path d="M94.6117 14.8885H91.4446V20.3737H85.2083V0.326416H94.6117C96.8754 0.326416 98.693 0.96854 100.064 2.25279C101.457 3.53704 102.154 5.32192 102.154 7.60745C102.154 9.89298 101.457 11.6779 100.064 12.9621C98.693 14.2464 96.8754 14.8885 94.6117 14.8885ZM93.7627 9.63177C95.2864 9.63177 96.0483 8.957 96.0483 7.60745C96.0483 6.2579 95.2864 5.58313 93.7627 5.58313H91.4446V9.63177H93.7627Z" fill="#10003F"/>
<path d="M110.195 0.326416V20.3737H103.861V0.326416H110.195Z" fill="#10003F"/>
<path d="M114.498 17.7945C112.647 15.8354 111.722 13.354 111.722 10.3502C111.722 7.34634 112.647 4.87579 114.498 2.93853C116.348 0.979511 118.731 0 121.648 0C124.173 0 126.197 0.674774 127.721 2.02432C129.266 3.37387 130.224 5.12611 130.594 7.28104H124.26C123.868 6.10562 122.998 5.51792 121.648 5.51792C120.538 5.51792 119.667 5.96414 119.036 6.85658C118.405 7.74902 118.089 8.91356 118.089 10.3502C118.089 11.765 118.405 12.9296 119.036 13.8438C119.667 14.7362 120.538 15.1824 121.648 15.1824C122.998 15.1824 123.868 14.5838 124.26 13.3867H130.594C130.224 15.5634 129.266 17.3265 127.721 18.676C126.197 20.0256 124.173 20.7003 121.648 20.7003C118.731 20.7003 116.348 19.7317 114.498 17.7945Z" fill="#10003F"/>
<path d="M137.652 0.326416H144.248L151.823 20.3737H145.423L144.378 17.4679H137.326L136.281 20.3737H130.077L137.652 0.326416ZM140.852 7.73805L139.187 12.3417H142.517L140.852 7.73805Z" fill="#10003F"/>
<path d="M152.901 20.3737V0.326416H159.235V14.9538H167.854V20.3737H152.901Z" fill="#10003F"/>
<path d="M57.5616 24.7134H64.157L71.7319 44.7608H65.3324L64.2876 41.8549H57.2351L56.1903 44.7608H49.9868L57.5616 24.7134ZM60.7614 32.1251L59.0962 36.7288H62.4266L60.7614 32.1251Z" fill="#10003F"/>
<path d="M84.0076 38.3287H81.6568V33.8556H90.3744V36.0759C90.3744 38.8403 89.5255 41.0387 87.8277 42.6712C86.1516 44.282 83.9096 45.0874 81.1017 45.0874C78.0761 45.0874 75.6165 44.1296 73.7227 42.2141C71.829 40.2769 70.8821 37.7846 70.8821 34.7372C70.8821 31.6898 71.829 29.2084 73.7227 27.2929C75.6165 25.3556 78.0761 24.387 81.1017 24.387C83.7137 24.387 85.8143 25.0618 87.4032 26.4113C88.9922 27.7609 89.9717 29.524 90.3418 31.7007H83.8443C83.4308 30.5035 82.5166 29.9049 81.1017 29.9049C79.861 29.9049 78.9033 30.3512 78.2285 31.2436C77.5755 32.136 77.249 33.3006 77.249 34.7372C77.249 36.2173 77.5864 37.3928 78.2611 38.2634C78.9577 39.1341 79.9045 39.5695 81.1017 39.5695C82.5166 39.5695 83.4852 39.1559 84.0076 38.3287Z" fill="#10003F"/>
<path d="M91.9089 24.7134H106.993V30.1007H98.1451V31.9945H106.243V37.2185H98.1451V39.3408H106.993V44.7608H91.9089V24.7134Z" fill="#10003F"/>
<path d="M127.578 24.7134V44.7608H122.387L115.073 34.7371V44.7608H108.968V24.7134H114.877L121.473 34.0514V24.7134H127.578Z" fill="#10003F"/>
<path d="M131.88 42.1815C130.03 40.2225 129.104 37.741 129.104 34.7372C129.104 31.7334 130.03 29.2628 131.88 27.3255C133.73 25.3665 136.113 24.387 139.03 24.387C141.555 24.387 143.579 25.0618 145.103 26.4113C146.649 27.7609 147.606 29.5131 147.976 31.6681H141.642C141.25 30.4926 140.38 29.9049 139.03 29.9049C137.92 29.9049 137.049 30.3512 136.418 31.2436C135.787 32.136 135.471 33.3006 135.471 34.7372C135.471 36.152 135.787 37.3166 136.418 38.2308C137.049 39.1232 137.92 39.5695 139.03 39.5695C140.38 39.5695 141.25 38.9709 141.642 37.7737H147.976C147.606 39.9504 146.649 41.7135 145.103 43.063C143.579 44.4126 141.555 45.0874 139.03 45.0874C136.113 45.0874 133.73 44.1187 131.88 42.1815Z" fill="#10003F"/>
<path d="M157.589 31.8639L161.18 24.7134H167.776L160.593 38.1654V44.7608H154.226V38.1654L147.141 24.7134H153.997L157.589 31.8639Z" fill="#10003F"/>
<path d="M3.33603 35.5211C3.32387 35.3971 3.36586 35.2719 3.462 35.1456C3.55734 35.011 3.68738 34.8897 3.85212 34.7817C4.01605 34.6654 4.20267 34.5678 4.41201 34.4888C4.62879 34.4008 4.84883 34.3458 5.07211 34.3239C5.19615 34.3117 5.30276 34.3346 5.39195 34.3927C5.4894 34.4499 5.58054 34.5704 5.66535 34.7541C5.74935 34.9296 5.83279 35.1844 5.91566 35.5185C6.00599 35.8437 6.10233 36.2725 6.20467 36.8052C6.25397 36.9673 6.29549 37.0927 6.32922 37.1812C6.37041 37.2607 6.41581 37.2979 6.46543 37.2931C6.53986 37.2858 6.60171 37.1503 6.65099 36.8866C7.08352 35.0826 7.87038 34.1245 9.01158 34.0126C9.54084 33.9607 10.0367 34.079 10.4991 34.3676C10.9699 34.6554 11.4282 35.1573 11.8741 35.8734C12.3276 36.5803 12.7838 37.5291 13.2429 38.7198C13.7012 39.9021 14.1875 41.3698 14.7017 43.1228C14.7272 43.2121 14.7477 43.2936 14.7633 43.3672C14.7788 43.4408 14.7899 43.5107 14.7964 43.5769C14.815 43.7671 14.7858 43.9369 14.7086 44.0864C14.6389 44.2268 14.5382 44.3494 14.4065 44.4542C14.274 44.5507 14.123 44.6281 13.9534 44.6865C13.7846 44.7531 13.6134 44.795 13.4397 44.812C13.0924 44.8461 12.8365 44.8336 12.6721 44.7746C12.5159 44.7148 12.4071 44.5835 12.3454 44.3808C11.9823 43.1474 11.6371 42.0541 11.3099 41.101C10.9909 40.1471 10.6873 39.3503 10.3991 38.7106C10.1184 38.0619 9.85355 37.5744 9.60447 37.2482C9.3554 36.922 9.12335 36.7694 8.90834 36.7905C8.69334 36.8116 8.50411 36.9679 8.34068 37.2594C8.18471 37.5419 8.04787 37.977 7.93018 38.5646C7.81249 39.1522 7.71394 39.8924 7.63453 40.7852C7.56338 41.6772 7.51301 42.7383 7.48339 43.9685C7.47449 44.3034 7.33505 44.5842 7.06508 44.8111C6.79512 45.038 6.43686 45.1733 5.9903 45.2171C5.69259 45.2463 5.4591 45.2066 5.28981 45.0979C5.12052 44.9893 5.01706 44.8283 4.97943 44.6149C4.73629 42.9021 4.51489 41.4962 4.31524 40.397C4.12304 39.2887 3.95687 38.4033 3.81675 37.7407C3.67581 37.0699 3.56431 36.5716 3.48224 36.2457C3.40018 35.9197 3.35144 35.6782 3.33603 35.5211Z" fill="#F2545B"/>
<path d="M15.9463 40.2332C15.9325 40.0926 15.9336 39.9338 15.9496 39.7569C15.9657 39.58 15.9636 39.3882 15.9433 39.1815C15.9295 39.0409 15.8569 38.9395 15.7256 38.8772C15.6025 38.8141 15.4621 38.7444 15.3043 38.6681C15.1465 38.5917 14.9987 38.4893 14.8609 38.3609C14.7313 38.2317 14.6536 38.0347 14.6276 37.7701C14.609 37.5799 14.6399 37.3848 14.7205 37.1849C14.8094 36.9842 14.9453 36.7955 15.1284 36.6189C15.5806 36.2072 16.053 35.8311 16.5456 35.4905C17.0464 35.1492 17.5476 34.8537 18.0492 34.6041C18.5589 34.3538 19.0649 34.1497 19.5671 33.9919C20.0692 33.8341 20.556 33.7321 21.0274 33.6858C21.8213 33.608 22.5801 33.6838 23.304 33.9134C24.0353 34.1339 24.6824 34.4753 25.2454 34.9378C25.8159 35.3911 26.2836 35.9464 26.6487 36.6035C27.0211 37.2516 27.2455 37.9643 27.3218 38.7417C27.3964 39.5025 27.3061 40.2419 27.0509 40.9599C26.8032 41.6688 26.4357 42.306 25.9485 42.8714C25.4612 43.4369 24.8684 43.9041 24.1698 44.2732C23.4804 44.6498 22.7346 44.8774 21.9325 44.956C21.1468 45.0331 20.4061 44.9722 19.7104 44.7732C19.0146 44.5743 18.4 44.2672 17.8667 43.852C17.3325 43.4285 16.8978 42.9117 16.5624 42.3018C16.2263 41.6835 16.0209 40.994 15.9463 40.2332ZM21.9863 42.6965C22.3337 42.6624 22.6865 42.5569 23.0448 42.3798C23.4032 42.2027 23.7224 41.9668 24.0024 41.6722C24.2899 41.3685 24.5138 41.0125 24.6741 40.6044C24.8427 40.1955 24.9031 39.747 24.8552 39.2591C24.8066 38.763 24.6702 38.3088 24.4461 37.8966C24.222 37.4844 23.9333 37.137 23.5799 36.8544C23.234 36.5627 22.833 36.3474 22.3769 36.2085C21.929 36.0687 21.4529 36.0236 20.9484 36.0731C20.0305 36.1631 19.3511 36.4719 18.9103 36.9994C18.4686 37.5186 18.296 38.2702 18.3926 39.2543C18.4453 39.7918 18.5729 40.2844 18.7755 40.7321C18.9855 41.1707 19.2518 41.5454 19.5745 41.856C19.8964 42.1584 20.261 42.3857 20.6683 42.5377C21.0839 42.689 21.5233 42.7419 21.9863 42.6965Z" fill="#F2545B"/>
<path d="M29.1354 28.6324C29.0924 28.1941 29.1864 27.876 29.4175 27.678C29.6477 27.4717 30.0481 27.3406 30.6187 27.2846C30.8255 27.2643 31.0012 27.268 31.1458 27.2955C31.2979 27.314 31.4284 27.368 31.5374 27.4575C31.6546 27.5462 31.7503 27.6704 31.8244 27.8301C31.906 27.9807 31.9796 28.1781 32.0453 28.4221C32.22 29.1814 32.4053 29.9648 32.6014 30.7721C32.8058 31.5786 33.0147 32.3889 33.2281 33.2029C33.3142 33.5701 33.5268 33.7371 33.8658 33.7039C33.9568 33.6949 34.1048 33.6721 34.31 33.6353C34.5225 33.5894 34.7723 33.5398 35.0593 33.4866C35.3455 33.4251 35.6524 33.3616 35.9799 33.2961C36.3157 33.2298 36.6478 33.168 36.9762 33.1107C37.312 33.0444 37.6279 32.9884 37.924 32.9426C38.2275 32.8878 38.4951 32.849 38.7266 32.8263C38.9086 32.8085 39.0569 32.8315 39.1717 32.8954C39.2857 32.951 39.3773 33.0339 39.4466 33.1439C39.5233 33.245 39.5768 33.365 39.6071 33.5039C39.6449 33.6338 39.6707 33.769 39.6845 33.9096C39.6967 34.0336 39.6844 34.1643 39.6478 34.3014C39.6194 34.4378 39.5691 34.5638 39.497 34.6794C39.4323 34.786 39.3453 34.878 39.236 34.9555C39.1267 35.033 38.9977 35.0791 38.8488 35.0937C38.1294 35.1642 37.4041 35.2604 36.673 35.3822C35.9493 35.4949 35.2273 35.6242 34.5068 35.77C34.1396 35.8561 33.9718 36.0605 34.0034 36.383C34.0058 36.4078 34.0132 36.4405 34.0255 36.481C34.037 36.5133 34.044 36.5418 34.0464 36.5666C34.2162 37.2763 34.3733 37.9414 34.5177 38.5617C34.6703 39.1813 34.7999 39.7363 34.9064 40.2268C35.0204 40.7082 35.1102 41.1127 35.1757 41.4403C35.2487 41.7587 35.2905 41.9717 35.301 42.0792C35.3302 42.3769 35.3256 42.6278 35.2872 42.832C35.2496 43.0444 35.1707 43.2191 35.0505 43.3561C34.9312 43.5014 34.7623 43.6098 34.5439 43.6814C34.3346 43.7603 34.0645 43.816 33.7338 43.8485C33.4195 43.8793 33.1807 43.8276 33.0172 43.6933C32.8538 43.5591 32.7488 43.3398 32.7022 43.0354C32.5569 42.0645 32.3822 41.0923 32.1782 40.1187C31.9733 39.1369 31.7524 38.1609 31.5152 37.1906C31.4059 36.8423 31.2024 36.6828 30.9047 36.712C30.8799 36.7144 30.8514 36.7214 30.8191 36.7329C30.7869 36.7444 30.7583 36.7514 30.7335 36.7538C30.2321 36.9199 29.7597 37.0831 29.3163 37.2435C28.8728 37.4039 28.4591 37.5697 28.0751 37.7409C27.8591 37.8372 27.6659 37.9105 27.4955 37.9606C27.3243 38.0024 27.1684 38.0302 27.0278 38.044C26.8376 38.0627 26.6889 37.9938 26.5817 37.8373C26.4737 37.6726 26.4072 37.462 26.382 37.2057C26.3731 37.1147 26.3712 37.0105 26.3764 36.8931C26.3808 36.7675 26.4021 36.6443 26.4404 36.5237C26.4695 36.3956 26.5247 36.2774 26.606 36.1693C26.6781 36.0537 26.7854 35.9555 26.9277 35.8747C27.2613 35.7001 27.7102 35.5099 28.2744 35.3043C28.8379 35.0904 29.477 34.8816 30.1918 34.6779C30.3531 34.6203 30.4748 34.5416 30.5568 34.4417C30.6463 34.3328 30.6817 34.1832 30.6631 33.993C30.659 33.9516 30.655 33.9103 30.6509 33.8689C30.6461 33.8193 30.6329 33.7705 30.6115 33.7225C30.4046 32.9747 30.2087 32.2967 30.0238 31.6887C29.8464 31.0716 29.6903 30.5442 29.5555 30.1065C29.429 29.6681 29.3284 29.3231 29.2536 29.0716C29.1789 28.8202 29.1394 28.6737 29.1354 28.6324Z" fill="#F2545B"/>
<path fill-rule="evenodd" clip-rule="evenodd" d="M1.59006 27.0497C1.88021 27.4111 2.34194 27.7742 2.96014 27.7656L2.93505 25.9519C3.00813 25.9509 3.05077 25.9704 3.06528 25.979C3.05605 25.9716 3.03558 25.9528 3.00449 25.914C2.90674 25.7923 2.78 25.5573 2.67473 25.1882C2.46659 24.4586 2.39293 23.3801 2.63321 22.1466C3.10678 19.7155 4.79159 16.728 8.96826 14.7786C10.6288 14.0035 11.786 13.4248 12.59 12.9884C12.4729 13.3608 12.3179 13.7504 12.1436 14.1434C11.9491 14.5817 11.7434 14.9966 11.5506 15.3856C11.4929 15.5021 11.4363 15.6162 11.3815 15.728C11.2661 15.9633 11.1561 16.1936 11.0695 16.3994C10.9896 16.5891 10.8994 16.8264 10.8643 17.0567L12.6575 17.3301C12.6573 17.331 12.6575 17.3304 12.6581 17.3282C12.6617 17.3153 12.6801 17.2485 12.7412 17.1032C12.8063 16.9487 12.8966 16.758 13.0102 16.5265C13.0585 16.428 13.1106 16.3229 13.1654 16.2123C13.3605 15.8189 13.5898 15.3566 13.8017 14.879C14.0739 14.2653 14.3391 13.5801 14.4919 12.9001C14.6046 12.3982 14.6678 11.8494 14.5967 11.31C14.6275 11.1626 14.6285 10.9881 14.5611 10.7967C14.4338 10.4355 14.155 10.2803 13.9932 10.2174C13.4291 9.86627 12.7514 9.69924 12.1006 9.61936C11.3799 9.5309 10.6004 9.5391 9.86017 9.58477C9.11689 9.63063 8.38309 9.71647 7.7545 9.7928C7.69712 9.79976 7.64091 9.80661 7.58588 9.81331C7.01772 9.88251 6.57463 9.93648 6.26324 9.95084L6.34679 11.7628C6.73131 11.7451 7.24731 11.6821 7.78746 11.6161C7.84909 11.6086 7.91104 11.601 7.97314 11.5935C8.6006 11.5173 9.28733 11.4375 9.97188 11.3952C10.5922 11.357 11.1865 11.3513 11.7114 11.4015C10.978 11.7985 9.8672 12.3572 8.20109 13.1349C3.48813 15.3346 1.43502 18.8108 0.852766 21.7998C0.565138 23.2764 0.634096 24.6471 0.930393 25.6858C1.07734 26.201 1.29328 26.68 1.59006 27.0497ZM3.07094 25.9829C3.07095 25.9827 3.06908 25.9812 3.06528 25.979C3.06903 25.982 3.07093 25.9831 3.07094 25.9829Z" fill="#F2545B"/>
</svg>
